0
SECTION
2
HEADER
9
$INSUNITS
70
1
9
$ACADVER
1
AC1014
9
$HANDSEED
5
FFFF
0
ENDSEC
0
SECTION
2
TABLES
0
TABLE
2
VPORT
5
8
100
AcDbSymbolTable
0
ENDTAB
0
TABLE
2
LTYPE
5
5
100
AcDbSymbolTable
0
LTYPE
5
14
100
AcDbSymbolTableRecord
100
AcDbLinetypeTableRecord
2
BYBLOCK
70
0
0
LTYPE
5
15
100
AcDbSymbolTableRecord
100
AcDbLinetypeTableRecord
2
BYLAYER
70
0
0
LTYPE
5
16
100
AcDbSymbolTableRecord
100
AcDbLinetypeTableRecord
2
DASHED
70
0
3
Dashed __ __ __ __ __ __ __ __ __ __ __ __ __ _
72
65
73
2
40
0.75
49
0.5
74
0
49
-0.25
74
0
0
ENDTAB
0
TABLE
2
LAYER
5
2
100
AcDbSymbolTable
70
2
0
LAYER
5
50
100
AcDbSymbolTableRecord
100
AcDbLayerTableRecord
2
0
70
0
62
7
6
CONTINUOUS
0
ENDTAB
0
TABLE
2
STYLE
5
3
100
AcDbSymbolTable
70
1
0
STYLE
5
11
100
AcDbSymbolTableRecord
100
AcDbTextStyleTableRecord
2
STANDARD
70
0
0
ENDTAB
0
TABLE
2
VIEW
5
6
100
AcDbSymbolTable
70
0
0
ENDTAB
0
TABLE
2
UCS
5
7
100
AcDbSymbolTable
70
0
0
ENDTAB
0
TABLE
2
APPID
5
9
100
AcDbSymbolTable
70
2
0
APPID
5
12
100
AcDbSymbolTableRecord
100
AcDbRegAppTableRecord
2
ACAD
70
0
0
ENDTAB
0
TABLE
2
DIMSTYLE
5
A
100
AcDbSymbolTable
70
1
0
ENDTAB
0
TABLE
2
BLOCK_RECORD
5
1
100
AcDbSymbolTable
70
1
0
BLOCK_RECORD
5
1F
100
AcDbSymbolTableRecord
100
AcDbBlockTableRecord
2
*MODEL_SPACE
0
BLOCK_RECORD
5
1B
100
AcDbSymbolTableRecord
100
AcDbBlockTableRecord
2
*PAPER_SPACE
0
ENDTAB
0
ENDSEC
0
SECTION
2
BLOCKS
0
BLOCK
5
20
100
AcDbEntity
100
AcDbBlockBegin
2
*MODEL_SPACE
0
ENDBLK
5
21
100
AcDbEntity
100
AcDbBlockEnd
0
BLOCK
5
1C
100
AcDbEntity
100
AcDbBlockBegin
2
*PAPER_SPACE
0
ENDBLK
5
1D
100
AcDbEntity
100
AcDbBlockEnd
0
ENDSEC
0
SECTION
2
ENTITIES
0
LWPOLYLINE
5
100
100
AcDbEntity
8
OUTER_PROFILES
100
AcDbPolyline
90
7
10
0.24292893218611647
20
13.462464292670965
30
0
10
0.13179509206551701
20
13.557938028439079
30
0
10
0.020661251945196451
20
13.639176228740821
30
0
10
-0.034905668114874971
20
13.670322018915112
30
0
10
-0.090472588174900642
20
13.69333988801095
30
0
10
-0.146039508234895
20
13.707584565202714
30
0
10
-0.20160642829487219
20
13.712464292670965
30
0
0
LINE
5
101
100
AcDbEntity
8
OUTER_PROFILES
100
AcDbLine
10
-0.20160642829487219
20
13.712464292670965
30
0
11
-1.8766064282948183
21
13.712464292670962
31
0
0
LINE
5
102
100
AcDbEntity
8
OUTER_PROFILES
100
AcDbLine
10
-1.8766064282948183
20
13.712464292670962
30
0
11
-1.8766064282948225
21
1.8766064282948149
31
0
0
LINE
5
103
100
AcDbEntity
8
OUTER_PROFILES
100
AcDbLine
10
-1.8766064282948225
20
1.8766064282948149
30
0
11
-0.20160642829487438
21
1.8766064282947994
31
0
0
LWPOLYLINE
5
104
100
AcDbEntity
8
OUTER_PROFILES
100
AcDbPolyline
90
6
10
-0.20160642829487438
20
1.8766064282947994
30
0
10
-0.14603950823443357
20
1.8815748438512028
30
0
10
-0.090472588174075039
20
1.8959604924976481
30
0
10
0.020661251946637742
20
1.9498659009240507
30
0
10
0.13179509206734918
20
2.0309902471468244
30
0
10
0.24292893218806452
20
2.1266064282947945
30
0
0
LINE
5
105
100
AcDbEntity
8
OUTER_PROFILES
100
AcDbLine
10
0.24292893218806452
20
2.1266064282947945
30
0
11
0.24999999999941505
21
2.1195353604835643
31
0
0
LWPOLYLINE
5
106
100
AcDbEntity
8
OUTER_PROFILES
100
AcDbPolyline
90
7
10
0.24999999999941505
20
2.1195353604835643
30
0
10
0.15452626423147078
20
2.008401520362904
30
0
10
0.073288063929917976
20
1.8972676802420627
30
0
10
0.042142273755712452
20
1.8417007601815836
30
0
10
0.019124404659938931
20
1.7861338401210747
30
0
10
0.0048797274682222148
20
1.7305669200605447
30
0
10
-2.3557305282878161e-15
20
1.6750000000000023
30
0
0
LINE
5
107
100
AcDbEntity
8
OUTER_PROFILES
100
AcDbLine
10
-2.3557305282878161e-15
20
1.6750000000000023
30
0
11
0
21
0
31
0
0
LINE
5
108
100
AcDbEntity
8
OUTER_PROFILES
100
AcDbLine
10
0
20
0
30
0
11
17.835857864376141
21
0
31
0
0
LINE
5
109
100
AcDbEntity
8
OUTER_PROFILES
100
AcDbLine
10
17.835857864376141
20
0
30
0
11
17.835857864376134
21
1.6749999999999468
31
0
0
LWPOLYLINE
5
110
100
AcDbEntity
8
OUTER_PROFILES
100
AcDbPolyline
90
6
10
17.835857864376134
20
1.6749999999999468
30
0
10
17.830889448819718
20
1.7305669200603191
30
0
10
17.816503800173265
20
1.7861338401206934
30
0
10
17.762598391746867
20
1.8972676802414461
30
0
10
17.681474045524112
20
2.0084015203621997
30
0
10
17.58585786437617
20
2.119535360482951
30
0
0
LINE
5
111
100
AcDbEntity
8
OUTER_PROFILES
100
AcDbLine
10
17.58585786437617
20
2.119535360482951
30
0
11
17.592928932188038
21
2.1266064282948083
31
0
0
LWPOLYLINE
5
112
100
AcDbEntity
8
OUTER_PROFILES
100
AcDbPolyline
90
7
10
17.592928932188038
20
2.1266064282948083
30
0
10
17.704062772308784
20
2.0311326925266844
30
0
10
17.815196612429528
20
1.9498944922249331
30
0
10
17.870763532489899
20
1.9187487020506444
30
0
10
17.926330452550268
20
1.8957308329548064
30
0
10
17.981897372610636
20
1.8814861557630478
30
0
10
18.037464292671004
20
1.8766064282948078
30
0
0
LINE
5
113
100
AcDbEntity
8
OUTER_PROFILES
100
AcDbLine
10
18.037464292671004
20
1.8766064282948078
30
0
11
19.712464292670951
21
1.8766064282947925
31
0
0
LINE
5
114
100
AcDbEntity
8
OUTER_PROFILES
100
AcDbLine
10
19.712464292670951
20
1.8766064282947925
30
0
11
19.712464292670944
21
13.712464292670965
31
0
0
LINE
5
115
100
AcDbEntity
8
OUTER_PROFILES
100
AcDbLine
10
19.712464292670944
20
13.712464292670965
30
0
11
18.037464292670993
21
13.712464292670951
31
0
0
LWPOLYLINE
5
116
100
AcDbEntity
8
OUTER_PROFILES
100
AcDbPolyline
90
6
10
18.037464292670993
20
13.712464292670951
30
0
10
17.981897372610621
20
13.707495877114544
30
0
10
17.926330452550246
20
13.693110228468099
30
0
10
17.815196612429503
20
13.639204820041696
30
0
10
17.704062772308752
20
13.558080473818922
30
0
10
17.592928932188006
20
13.462464292670955
30
0
0
LINE
5
117
100
AcDbEntity
8
OUTER_PROFILES
100
AcDbLine
10
17.592928932188006
20
13.462464292670955
30
0
11
17.585857864376138
21
13.469535360482855
31
0
0
LWPOLYLINE
5
118
100
AcDbEntity
8
OUTER_PROFILES
100
AcDbPolyline
90
7
10
17.585857864376138
20
13.469535360482855
30
0
10
17.681331600144262
20
13.5806692006036
30
0
10
17.762569800446013
20
13.691803040724343
30
0
10
17.793715590620298
20
13.747369960784715
30
0
10
17.81673345971614
20
13.802936880845085
30
0
10
17.830978136907895
20
13.858503800905455
30
0
10
17.835857864376138
20
13.914070720965823
30
0
0
LINE
5
119
100
AcDbEntity
8
OUTER_PROFILES
100
AcDbLine
10
17.835857864376138
20
13.914070720965823
30
0
11
17.835857864376138
21
15.589070720965767
31
0
0
LINE
5
120
100
AcDbEntity
8
OUTER_PROFILES
100
AcDbLine
10
17.835857864376138
20
15.589070720965767
30
0
11
-3.3568948146146463e-14
21
15.58907072096576
31
0
0
LINE
5
121
100
AcDbEntity
8
OUTER_PROFILES
100
AcDbLine
10
-3.3568948146146463e-14
20
15.58907072096576
30
0
11
-2.3122361418374323e-14
21
13.914070720965814
31
0
0
LWPOLYLINE
5
122
100
AcDbEntity
8
OUTER_PROFILES
100
AcDbPolyline
90
6
10
-2.3122361418374323e-14
20
13.914070720965814
30
0
10
0.0049684155563847858
20
13.85850380090544
30
0
10
0.019354064202831176
20
13.802936880845067
30
0
10
0.07325947262923703
20
13.691803040724317
30
0
10
0.15438381885201516
20
13.580669200603564
30
0
10
0.24999999999998992
20
13.469535360482812
30
0
0
LINE
5
123
100
AcDbEntity
8
OUTER_PROFILES
100
AcDbLine
10
0.24999999999998992
20
13.469535360482812
30
0
11
0.24292893218611647
21
13.462464292670965
31
0
0
LINE
5
124
100
AcDbEntity
8
BEND
100
AcDbLine
10
17.815196612429503
20
13.63924098796759
30
9.7724985852107687e-14
11
17.815196612429503
21
1.9498297329981833
31
7.4908591409023762e-14
0
LINE
5
125
100
AcDbEntity
8
BEND
100
AcDbLine
10
0.07322330470334236
20
13.691803040724322
30
2.1086138275178516e-13
11
17.762634559672762
21
13.691803040724327
31
9.0603507045053809e-14
0
LINE
5
126
100
AcDbEntity
8
BEND
100
AcDbLine
10
0.02066125194661815
20
1.9498297329981482
30
6.3344771854337399e-14
11
0.020661251946621252
21
13.639240987966692
31
-1.0615646675847582e-12
0
LINE
5
127
100
AcDbEntity
8
BEND
100
AcDbLine
10
17.762634559672765
20
1.8972676802414361
30
1.1599876599415674e-13
11
0.073223304702762698
21
1.8972676802414361
31
9.01865941661202e-13
0
LINE
5
128
100
AcDbEntity
8
BEND_EXTENT
100
AcDbLine
10
-0.20160642829487446
20
1.8766064282947994
30
9.9794548815687034e-14
11
-0.20160642829487166
21
13.712464292670967
31
2.08893630290663e-13
0
LINE
5
129
100
AcDbEntity
8
BEND_EXTENT
100
AcDbLine
10
0.24292893218813053
20
13.462464292670957
30
2.0042197945054161e-13
11
0.24292893218810394
21
2.1266064282948056
31
9.2830878068068447e-14
0
LINE
5
130
100
AcDbEntity
8
BEND_EXTENT
100
AcDbLine
10
-2.3122361418374323e-14
20
13.914070720965814
30
2.2029622220908632e-13
11
17.835857864376138
21
13.914070720965819
31
1.1609261233875656e-13
0
LINE
5
131
100
AcDbEntity
8
BEND_EXTENT
100
AcDbLine
10
17.585857864376131
20
13.46953536048283
30
9.8483780082793023e-14
11
0.24999999999998801
21
13.469535360482812
31
2.0044595477592546e-13
0
LINE
5
132
100
AcDbEntity
8
BEND_EXTENT
100
AcDbLine
10
18.037464292670993
20
13.712464292670951
30
9.6024315370167467e-14
11
18.037464292671
21
1.8766064282948078
31
9.3226903024655229e-14
0
LINE
5
133
100
AcDbEntity
8
BEND_EXTENT
100
AcDbLine
10
17.592928932188009
20
2.1266064282948069
30
9.3240752476392008e-14
11
17.592928932188006
21
13.462464292670955
31
9.8442191056328794e-14
0
LINE
5
134
100
AcDbEntity
8
BEND_EXTENT
100
AcDbLine
10
17.835857864376134
20
1.6749999999999468
30
7.2732720983317389e-14
11
-2.7974123455122052e-15
21
1.6749999999999468
31
7.2033367896939308e-14
0
LINE
5
135
100
AcDbEntity
8
BEND_EXTENT
100
AcDbLine
10
0.24999999999998435
20
2.1195353604829252
30
9.2767434257654884e-14
11
17.585857864376141
21
2.1195353604829377
31
9.3238631934957569e-14
0
ENDSEC
0
SECTION
2
OBJECTS
0
DICTIONARY
5
C
100
AcDbDictionary
3
ACAD_GROUP
350
D
3
ACAD_MLINESTYLE
350
17
0
DICTIONARY
5
D
100
AcDbDictionary
0
DICTIONARY
5
1A
330
C
100
AcDbDictionary
0
DICTIONARY
5
17
100
AcDbDictionary
0
ENDSEC
0
EOF
