0
SECTION
2
HEADER
9
$INSUNITS
70
1
9
$ACADVER
1
AC1014
9
$HANDSEED
5
FFFF
0
ENDSEC
0
SECTION
2
TABLES
0
TABLE
2
VPORT
5
8
100
AcDbSymbolTable
0
ENDTAB
0
TABLE
2
LTYPE
5
5
100
AcDbSymbolTable
0
LTYPE
5
14
100
AcDbSymbolTableRecord
100
AcDbLinetypeTableRecord
2
BYBLOCK
70
0
0
LTYPE
5
15
100
AcDbSymbolTableRecord
100
AcDbLinetypeTableRecord
2
BYLAYER
70
0
0
LTYPE
5
16
100
AcDbSymbolTableRecord
100
AcDbLinetypeTableRecord
2
DASHED
70
0
3
Dashed __ __ __ __ __ __ __ __ __ __ __ __ __ _
72
65
73
2
40
0.75
49
0.5
74
0
49
-0.25
74
0
0
ENDTAB
0
TABLE
2
LAYER
5
2
100
AcDbSymbolTable
70
2
0
LAYER
5
50
100
AcDbSymbolTableRecord
100
AcDbLayerTableRecord
2
0
70
0
62
7
6
CONTINUOUS
0
ENDTAB
0
TABLE
2
STYLE
5
3
100
AcDbSymbolTable
70
1
0
STYLE
5
11
100
AcDbSymbolTableRecord
100
AcDbTextStyleTableRecord
2
STANDARD
70
0
0
ENDTAB
0
TABLE
2
VIEW
5
6
100
AcDbSymbolTable
70
0
0
ENDTAB
0
TABLE
2
UCS
5
7
100
AcDbSymbolTable
70
0
0
ENDTAB
0
TABLE
2
APPID
5
9
100
AcDbSymbolTable
70
2
0
APPID
5
12
100
AcDbSymbolTableRecord
100
AcDbRegAppTableRecord
2
ACAD
70
0
0
ENDTAB
0
TABLE
2
DIMSTYLE
5
A
100
AcDbSymbolTable
70
1
0
ENDTAB
0
TABLE
2
BLOCK_RECORD
5
1
100
AcDbSymbolTable
70
1
0
BLOCK_RECORD
5
1F
100
AcDbSymbolTableRecord
100
AcDbBlockTableRecord
2
*MODEL_SPACE
0
BLOCK_RECORD
5
1B
100
AcDbSymbolTableRecord
100
AcDbBlockTableRecord
2
*PAPER_SPACE
0
ENDTAB
0
ENDSEC
0
SECTION
2
BLOCKS
0
BLOCK
5
20
100
AcDbEntity
100
AcDbBlockBegin
2
*MODEL_SPACE
0
ENDBLK
5
21
100
AcDbEntity
100
AcDbBlockEnd
0
BLOCK
5
1C
100
AcDbEntity
100
AcDbBlockBegin
2
*PAPER_SPACE
0
ENDBLK
5
1D
100
AcDbEntity
100
AcDbBlockEnd
0
ENDSEC
0
SECTION
2
ENTITIES
0
LWPOLYLINE
5
100
100
AcDbEntity
8
OUTER_PROFILES
100
AcDbPolyline
90
40
70
1
43
0.0
10
23.738
20
0
10
23.738
20
0.42499999850901954
10
23.738
20
0.59728494172842883
10
23.757999999999999
20
0.59728494172842883
10
23.757999999999999
20
0.52228494172842876
10
24.639142470561431
20
0.52228494172843021
10
24.639142470561435
20
1.4472849417284186
10
23.712
20
1.447284941728417
10
23.712
20
1.5334274122898495
10
24.723142470561417
20
1.5334274122898495
10
24.72314247056141
20
3.1334274122898496
10
23.712
20
3.1334274122898496
10
23.712
20
3.2195698828512844
10
24.639142470561417
20
3.2195698828512862
10
24.639142470561413
20
4.1445698828512851
10
23.757999999999999
20
4.1445698828512834
10
23.757999999999999
20
4.0695698828512841
10
23.738
20
4.0695698828512841
10
23.738
20
4.2418548260706919
10
23.738
20
4.6668548245797128
10
0
20
4.6668548245797128
10
0
20
4.2418548260706919
10
0
20
4.0695698828512841
10
-0.019999999999999542
20
4.0695698828512841
10
-0.019999999999999542
20
4.1445698828512834
10
-0.90114247056141317
20
4.1445698828512851
10
-0.90114247056141628
20
3.2195698828512862
10
0.026000000000000387
20
3.2195698828512844
10
0.026000000000000387
20
3.1334274122898496
10
-0.98514247056141202
20
3.1334274122898496
10
-0.98514247056141613
20
1.5334274122898495
10
0.026000000000000387
20
1.5334274122898495
10
0.026000000000000387
20
1.447284941728417
10
-0.90114247056143515
20
1.4472849417284186
10
-0.90114247056143482
20
0.52228494172843021
10
-0.019999999999999542
20
0.52228494172842876
10
-0.019999999999999542
20
0.59728494172842883
10
0
20
0.59728494172842883
10
0
20
0.42499999850901954
10
0
20
0
0
CIRCLE
5
101
100
AcDbEntity
8
INTERIOR_PROFILES
100
AcDbCircle
10
24.223142470561481
20
2.8334274122898302
30
0
40
0.064250000000000682
210
-0
220
0
230
1
0
CIRCLE
5
102
100
AcDbEntity
8
INTERIOR_PROFILES
100
AcDbCircle
10
24.144142470561448
20
3.644569882851346
30
0
40
0.064249999999999988
210
0
220
0
230
1
0
CIRCLE
5
103
100
AcDbEntity
8
INTERIOR_PROFILES
100
AcDbCircle
10
24.223142470561481
20
1.8334274122898304
30
0
40
0.064250000000000682
210
-0
220
0
230
1
0
CIRCLE
5
104
100
AcDbEntity
8
INTERIOR_PROFILES
100
AcDbCircle
10
24.144142470561416
20
1.0222849417283586
30
0
40
0.064249999999999988
210
0
220
-0
230
1
0
CIRCLE
5
105
100
AcDbEntity
8
INTERIOR_PROFILES
100
AcDbCircle
10
0.40614247056144992
20
3.644569882851346
30
0
40
0.064249999999999988
210
0
220
0
230
-1
0
CIRCLE
5
106
100
AcDbEntity
8
INTERIOR_PROFILES
100
AcDbCircle
10
0.40614247056141706
20
1.0222849417283586
30
0
40
0.064249999999999988
210
0
220
0
230
-1
0
CIRCLE
5
107
100
AcDbEntity
8
INTERIOR_PROFILES
100
AcDbCircle
10
0.48514247056147791
20
2.8334274122898302
30
0
40
0.064249999999999988
210
0
220
0
230
-1
0
CIRCLE
5
108
100
AcDbEntity
8
INTERIOR_PROFILES
100
AcDbCircle
10
0.48514247056147936
20
1.8334274122898304
30
0
40
0.064249999999999988
210
0
220
0
230
-1
0
LINE
5
109
100
AcDbEntity
8
BEND
100
AcDbLine
10
-0.063071235280716467
20
3.219569882851284
30
5.777413599922995e-09
11
-0.063071235280716467
21
4.1445698828512834
31
5.7773842270933673e-09
0
LINE
5
110
100
AcDbEntity
8
BEND
100
AcDbLine
10
23.801071235280716
20
4.1445698828512834
30
5.7773875718919177e-09
11
23.801071235280716
21
3.219569882851284
31
5.7774169447215454e-09
0
LINE
5
111
100
AcDbEntity
8
BEND
100
AcDbLine
10
23.738
20
4.1557123534127145
30
5.7773847262953351e-09
11
0
21
4.1557123534127145
31
5.7773835518731332e-09
0
LINE
5
112
100
AcDbEntity
8
BEND
100
AcDbLine
10
23.801071235280713
20
1.447284941728417
30
5.7774192777197321e-09
11
23.801071235280713
21
0.52228494172842876
31
5.7774156982736025e-09
0
LINE
5
113
100
AcDbEntity
8
BEND
100
AcDbLine
10
23.738
20
0.51114247116699674
30
5.7774128665738328e-09
11
0
21
0.51114247116699674
31
5.7774116921516317e-09
0
LINE
5
114
100
AcDbEntity
8
BEND
100
AcDbLine
10
23.712
20
3.1764986475705648
30
5.7774191723526749e-09
11
0.026000000000000387
21
3.1764986475705648
31
5.7774158525225754e-09
0
LINE
5
115
100
AcDbEntity
8
BEND
100
AcDbLine
10
-0.063071235280715038
20
0.52228494172842876
30
5.7774123534750512e-09
11
-0.063071235280715038
21
1.447284941728417
31
5.7774159329211817e-09
0
LINE
5
116
100
AcDbEntity
8
BEND
100
AcDbLine
10
23.712
20
1.490356177009134
30
5.7774191723526749e-09
11
0.026000000000000387
21
1.490356177009134
31
5.7774158525225754e-09
0
LINE
5
117
100
AcDbEntity
8
BEND
100
AcDbLine
10
-0.017071235280720663
20
1.5334274122898499
30
5.7774271563364036e-09
11
-0.017071235280720663
21
3.1334274122898496
31
5.7774299537487494e-09
0
LINE
5
118
100
AcDbEntity
8
BEND
100
AcDbLine
10
23.75507123528072
20
3.1334274122898496
30
5.7774332856525789e-09
11
23.75507123528072
21
1.5334274122898499
31
5.7774304882402331e-09
0
LINE
5
119
100
AcDbEntity
8
BEND_EXTENT
100
AcDbLine
10
23.79814247056143
20
1.5334274122898495
30
5.7774299916170671e-09
11
23.79814247056143
21
3.1334274122898491
31
5.7774341877355854e-09
0
LWPOLYLINE
5
120
100
AcDbEntity
8
BEND_EXTENT
100
AcDbPolyline
90
4
70
1
43
0.0
10
23.712
20
3.1334274122898496
10
23.712
20
1.5334274122898495
10
0.026000000000000387
20
1.5334274122898495
10
0.026000000000000387
20
3.1334274122898496
0
LINE
5
121
100
AcDbEntity
8
BEND_EXTENT
100
AcDbLine
10
23.844142470561433
20
3.2195698828512844
30
5.7774132135903554e-09
11
23.844142470561433
21
4.1445698828512842
31
5.7773838407607277e-09
0
LINE
5
122
100
AcDbEntity
8
BEND_EXTENT
100
AcDbLine
10
23.757999999999999
20
4.0695698828512841
30
5.7773897731882312e-09
11
23.757999999999999
21
3.2195698828512844
31
5.7774177473116864e-09
0
LINE
5
123
100
AcDbEntity
8
BEND_EXTENT
100
AcDbLine
10
23.84414247056143
20
0.52228494172843021
30
5.7774132135903554e-09
11
23.84414247056143
21
1.4472849417284186
31
5.7774188084150462e-09
0
LINE
5
124
100
AcDbEntity
8
BEND_EXTENT
100
AcDbLine
10
23.757999999999999
20
1.447284941728417
30
5.7774201950474887e-09
11
23.757999999999999
21
0.59728494172842883
31
5.7774156492524276e-09
0
LINE
5
125
100
AcDbEntity
8
BEND_EXTENT
100
AcDbLine
10
0
20
4.2418548260706919
30
5.7773809358610556e-09
11
23.738
21
4.2418548260706919
31
5.7773819900819452e-09
0
LINE
5
126
100
AcDbEntity
8
BEND_EXTENT
100
AcDbLine
10
23.738
20
4.0695698828512841
30
5.7773895955467594e-09
11
0
21
4.0695698828512841
31
5.7773862684283392e-09
0
LINE
5
127
100
AcDbEntity
8
BEND_EXTENT
100
AcDbLine
10
-0.019999999999999542
20
4.0695698828512841
30
5.7773864404634101e-09
11
-0.019999999999999542
21
3.2195698828512844
31
5.7774144145868652e-09
0
LINE
5
128
100
AcDbEntity
8
BEND_EXTENT
100
AcDbLine
10
0.026000000000000387
20
3.2195698828512844
30
5.7774142461959551e-09
11
23.712
21
3.2195698828512844
31
5.7774175660260546e-09
0
LINE
5
129
100
AcDbEntity
8
BEND_EXTENT
100
AcDbLine
10
23.738
20
0.42499999850901954
30
5.7774124119412026e-09
11
0
21
0.42499999850901954
31
5.777411357720313e-09
0
LINE
5
130
100
AcDbEntity
8
BEND_EXTENT
100
AcDbLine
10
0
20
0.59728494172842883
30
5.7774121444925356e-09
11
23.738
21
0.59728494172842883
31
5.7774154716109557e-09
0
LINE
5
131
100
AcDbEntity
8
BEND_EXTENT
100
AcDbLine
10
-0.060142470561430621
20
1.5334274122898495
30
5.7774266476395083e-09
11
-0.060142470561429226
21
3.1334274122898491
31
5.7774308437580259e-09
0
LINE
5
132
100
AcDbEntity
8
BEND_EXTENT
100
AcDbLine
10
-0.10614247056143265
20
3.2195698828512844
30
5.7774098567180749e-09
11
-0.10614247056143231
21
4.1445698828512842
31
5.7773804838884464e-09
0
LINE
5
133
100
AcDbEntity
8
BEND_EXTENT
100
AcDbLine
10
-0.1061424705614302
20
0.52228494172843021
30
5.7774098567180749e-09
11
-0.10614247056143056
21
1.4472849417284186
31
5.7774154515427658e-09
0
LINE
5
134
100
AcDbEntity
8
BEND_EXTENT
100
AcDbLine
10
-0.019999999999999542
20
1.447284941728417
30
5.7774168623226675e-09
11
-0.019999999999999542
21
0.59728494172842883
31
5.7774123165276064e-09
0
LINE
5
135
100
AcDbEntity
8
BEND_EXTENT
100
AcDbLine
10
0.026000000000000387
20
1.447284941728417
30
5.7774170436083001e-09
11
23.712
21
1.447284941728417
31
5.7774203634384004e-09
0
ENDSEC
0
SECTION
2
OBJECTS
0
DICTIONARY
5
C
100
AcDbDictionary
3
ACAD_GROUP
350
D
3
ACAD_MLINESTYLE
350
17
0
DICTIONARY
5
D
100
AcDbDictionary
0
DICTIONARY
5
1A
330
C
100
AcDbDictionary
0
DICTIONARY
5
17
100
AcDbDictionary
0
ENDSEC
0
EOF
