0
SECTION
2
HEADER
9
$INSUNITS
70
4
9
$ACADVER
1
AC1014
9
$HANDSEED
5
FFFF
0
ENDSEC
0
SECTION
2
TABLES
0
TABLE
2
VPORT
5
8
100
AcDbSymbolTable
0
ENDTAB
0
TABLE
2
LTYPE
5
5
100
AcDbSymbolTable
0
LTYPE
5
14
100
AcDbSymbolTableRecord
100
AcDbLinetypeTableRecord
2
BYBLOCK
70
0
0
LTYPE
5
15
100
AcDbSymbolTableRecord
100
AcDbLinetypeTableRecord
2
BYLAYER
70
0
0
LTYPE
5
16
100
AcDbSymbolTableRecord
100
AcDbLinetypeTableRecord
2
DASHED
70
0
3
Dashed __ __ __ __ __ __ __ __ __ __ __ __ __ _
72
65
73
2
40
0.75
49
0.5
74
0
49
-0.25
74
0
0
ENDTAB
0
TABLE
2
LAYER
5
2
100
AcDbSymbolTable
70
2
0
LAYER
5
50
100
AcDbSymbolTableRecord
100
AcDbLayerTableRecord
2
0
70
0
62
7
6
CONTINUOUS
0
ENDTAB
0
TABLE
2
STYLE
5
3
100
AcDbSymbolTable
70
1
0
STYLE
5
11
100
AcDbSymbolTableRecord
100
AcDbTextStyleTableRecord
2
STANDARD
70
0
0
ENDTAB
0
TABLE
2
VIEW
5
6
100
AcDbSymbolTable
70
0
0
ENDTAB
0
TABLE
2
UCS
5
7
100
AcDbSymbolTable
70
0
0
ENDTAB
0
TABLE
2
APPID
5
9
100
AcDbSymbolTable
70
2
0
APPID
5
12
100
AcDbSymbolTableRecord
100
AcDbRegAppTableRecord
2
ACAD
70
0
0
ENDTAB
0
TABLE
2
DIMSTYLE
5
A
100
AcDbSymbolTable
70
1
0
ENDTAB
0
TABLE
2
BLOCK_RECORD
5
1
100
AcDbSymbolTable
70
1
0
BLOCK_RECORD
5
1F
100
AcDbSymbolTableRecord
100
AcDbBlockTableRecord
2
*MODEL_SPACE
0
BLOCK_RECORD
5
1B
100
AcDbSymbolTableRecord
100
AcDbBlockTableRecord
2
*PAPER_SPACE
0
ENDTAB
0
ENDSEC
0
SECTION
2
BLOCKS
0
BLOCK
5
20
100
AcDbEntity
100
AcDbBlockBegin
2
*MODEL_SPACE
0
ENDBLK
5
21
100
AcDbEntity
100
AcDbBlockEnd
0
BLOCK
5
1C
100
AcDbEntity
100
AcDbBlockBegin
2
*PAPER_SPACE
0
ENDBLK
5
1D
100
AcDbEntity
100
AcDbBlockEnd
0
ENDSEC
0
SECTION
2
ENTITIES
0
LWPOLYLINE
5
100
100
AcDbEntity
8
OUTER_PROFILES
100
AcDbPolyline
90
47
70
1
43
0.0
10
-29.190208847992633
20
-29.885065921377688
42
-0.4142135623730932
10
-33.411794116374374
20
-30.307224448215855
10
-37.26706890438129
20
-27.152908712573833
42
1.0000000074505806
10
-38.216925598416807
20
-28.313844654301853
10
-36.954407754091392
20
-29.34681379965901
10
-14.664780651541243
20
-47.583781429018252
42
-0.99999999999999989
10
-33.661914359259171
20
-70.802500405117883
10
-48.231660516761679
20
-58.881799003524876
10
-55.951541461809313
20
-52.565532775758612
10
-57.214059314784379
20
-51.532563623324464
42
0.9999999925494194
10
-58.163915991520639
20
-52.693499579206431
10
-6.677384255724137
20
-94.818843726676448
42
0.18267581368160157
10
0.024956567607094526
20
-97.072424763140148
42
-2.2152504370215418
10
-28.470743993969588
20
-131.90050322728948
42
0.18267581368159991
10
-32.006895866014446
20
-125.77713569480919
10
-82.712499751141664
20
-84.290732516068786
42
0.13610611130995193
10
-87.603614776219473
20
-82.134712483024884
42
-0.27735009811261579
10
-107.53606282834238
20
-65.826345894924259
42
0.13610611130995146
10
-110.61792702411367
20
-61.459019292727987
10
-161.32353090924062
20
-19.972616113987435
42
0.18267581368160046
10
-168.0258717325718
20
-17.719035077523703
42
-2.2152504370215418
10
-139.53017117099506
20
17.109043386625597
42
0.1826758136815998
10
-135.99401929895023
20
10.985675854145271
10
-84.507487554503996
20
-31.139668300401787
42
0.9999999925494194
10
-83.557630877767735
20
-29.978732344519827
10
-84.820148722093137
20
-28.94576319916267
10
-107.10977582464344
20
-10.708795569803339
42
-0.99999999999999989
10
-88.112642116925485
20
12.509923406296286
10
-65.823015014375244
20
-5.7270442230630643
10
-64.560497161400178
20
-6.7600133754972074
42
0.9999999925494194
10
-63.610640484663932
20
-5.5990774196152397
10
-67.465915281320463
20
-2.4447616768962552
42
-0.4142135623730952
10
-67.888073808158623
20
1.7768235914855008
10
-46.437437952199225
20
27.994267415435814
42
0.22494984540777391
10
-44.375030746212616
20
36.30684333781042
10
-63.185429234948316
20
129.41831585705381
42
0.1826758136815986
10
-66.945702161217866
20
135.40666684208833
42
-2.2152504370215338
10
-22.83679127012876
20
144.31755793119703
42
0.18267581368159952
10
-23.977508442869077
20
137.33910793626151
10
-5.9332042093211879
20
48.019801980198018
42
0.35696337817243418
10
3.8687759886986273
20
39.999999999999957
10
94.992512368116849
20
39.999999999999964
42
0.18267581368160024
10
101.60689064577832
20
42.500000000000007
42
-2.2152504370215311
10
101.60689064577841
20
-2.4999999999999734
42
0.18267581368159888
10
94.992512368116962
20
1.8873791418627661e-14
10
1.7763568394002505e-14
20
1.7763568394002505e-14
42
0.22494984540777266
10
-7.7395729920331604
20
-3.6676220974273379
0
CIRCLE
5
101
100
AcDbEntity
8
INTERIOR_PROFILES
100
AcDbCircle
10
97.611208970784475
20
0.90056391824652859
30
0
40
3.3000000000000016
210
0
220
0
230
-1
0
CIRCLE
5
102
100
AcDbEntity
8
INTERIOR_PROFILES
100
AcDbCircle
10
24.163347505400221
20
-59.193140917068064
30
0
40
3.3000000000000052
210
0
220
0
230
-1
0
LINE
5
103
100
AcDbEntity
8
BEND
100
AcDbLine
10
-88.68008919461704
20
-25.787630085279496
30
-6.8065027753556047e-14
11
-69.682955486899118
21
-2.56891110917989
31
-5.9183243556554833e-14
0
LINE
5
104
100
AcDbEntity
8
BEND
100
AcDbLine
10
-33.094467281567574
20
-32.504946913542142
30
4.3077639407721251e-14
11
-52.091600989285482
21
-55.723665889641737
31
5.1959423604722579e-14
0
LINE
5
105
100
AcDbEntity
8
BEND_EXTENT
100
AcDbLine
10
-55.951541461809313
20
-52.565532775758612
30
0
11
-36.954407754091392
21
-29.34681379965901
31
0
0
LINE
5
106
100
AcDbEntity
8
BEND_EXTENT
100
AcDbLine
10
-65.823015014375244
20
-5.7270442230630625
30
0
11
-84.820148722093137
21
-28.94576319916267
31
0
0
LINE
5
107
100
AcDbEntity
8
BEND_EXTENT
100
AcDbLine
10
-92.540029667140914
20
-22.629496971396307
30
-1.1990408665951691e-13
11
-73.542895959423021
21
0.58922200470329589
31
-1.1546319456101628e-13
0
LINE
5
108
100
AcDbEntity
8
BEND_EXTENT
100
AcDbLine
10
-29.234526809043757
20
-35.663080027425273
30
7.9936057773011271e-14
11
-48.231660516761679
21
-58.881799003524876
31
8.4376949871511897e-14
0
ENDSEC
0
SECTION
2
OBJECTS
0
DICTIONARY
5
C
100
AcDbDictionary
3
ACAD_GROUP
350
D
3
ACAD_MLINESTYLE
350
17
0
DICTIONARY
5
D
100
AcDbDictionary
0
DICTIONARY
5
1A
330
C
100
AcDbDictionary
0
DICTIONARY
5
17
100
AcDbDictionary
0
ENDSEC
0
EOF
