0
SECTION
2
HEADER
9
$INSUNITS
70
4
9
$ACADVER
1
AC1014
9
$HANDSEED
5
FFFF
0
ENDSEC
0
SECTION
2
TABLES
0
TABLE
2
VPORT
5
8
100
AcDbSymbolTable
0
ENDTAB
0
TABLE
2
LTYPE
5
5
100
AcDbSymbolTable
0
LTYPE
5
14
100
AcDbSymbolTableRecord
100
AcDbLinetypeTableRecord
2
BYBLOCK
70
0
0
LTYPE
5
15
100
AcDbSymbolTableRecord
100
AcDbLinetypeTableRecord
2
BYLAYER
70
0
0
LTYPE
5
16
100
AcDbSymbolTableRecord
100
AcDbLinetypeTableRecord
2
DASHED
70
0
3
Dashed __ __ __ __ __ __ __ __ __ __ __ __ __ _
72
65
73
2
40
0.75
49
0.5
74
0
49
-0.25
74
0
0
ENDTAB
0
TABLE
2
LAYER
5
2
100
AcDbSymbolTable
70
2
0
LAYER
5
50
100
AcDbSymbolTableRecord
100
AcDbLayerTableRecord
2
0
70
0
62
7
6
CONTINUOUS
0
ENDTAB
0
TABLE
2
STYLE
5
3
100
AcDbSymbolTable
70
1
0
STYLE
5
11
100
AcDbSymbolTableRecord
100
AcDbTextStyleTableRecord
2
STANDARD
70
0
0
ENDTAB
0
TABLE
2
VIEW
5
6
100
AcDbSymbolTable
70
0
0
ENDTAB
0
TABLE
2
UCS
5
7
100
AcDbSymbolTable
70
0
0
ENDTAB
0
TABLE
2
APPID
5
9
100
AcDbSymbolTable
70
2
0
APPID
5
12
100
AcDbSymbolTableRecord
100
AcDbRegAppTableRecord
2
ACAD
70
0
0
ENDTAB
0
TABLE
2
DIMSTYLE
5
A
100
AcDbSymbolTable
70
1
0
ENDTAB
0
TABLE
2
BLOCK_RECORD
5
1
100
AcDbSymbolTable
70
1
0
BLOCK_RECORD
5
1F
100
AcDbSymbolTableRecord
100
AcDbBlockTableRecord
2
*MODEL_SPACE
0
BLOCK_RECORD
5
1B
100
AcDbSymbolTableRecord
100
AcDbBlockTableRecord
2
*PAPER_SPACE
0
ENDTAB
0
ENDSEC
0
SECTION
2
BLOCKS
0
BLOCK
5
20
100
AcDbEntity
100
AcDbBlockBegin
2
*MODEL_SPACE
0
ENDBLK
5
21
100
AcDbEntity
100
AcDbBlockEnd
0
BLOCK
5
1C
100
AcDbEntity
100
AcDbBlockBegin
2
*PAPER_SPACE
0
ENDBLK
5
1D
100
AcDbEntity
100
AcDbBlockEnd
0
ENDSEC
0
SECTION
2
ENTITIES
0
LWPOLYLINE
5
100
100
AcDbEntity
8
OUTER_PROFILES
100
AcDbPolyline
90
58
70
1
43
0.0
10
250.0035814933446
20
57.177721347007697
42
0.2060321204102547
10
257.60280658256755
20
54.997864002288843
42
-2.5108136398747529
10
231.48174773445538
20
23.072125410151983
42
0.20603212041025432
10
227.84025883434032
20
30.089215874891568
10
178.3581696951174
20
70.57456153425592
42
1.0000000074505806
10
177.40831300108192
20
69.41362559252795
10
186.39071179045493
20
62.064390219404459
10
200.96045794795742
20
50.143688817811437
42
-0.99999999999999989
10
181.9633242402395
20
26.924969841711839
10
167.39357808273701
20
38.845671243304871
10
158.41117930201358
20
46.194906609351385
42
1.0000000074505806
10
157.46132260797802
20
45.033970667623379
10
159.76868280622793
20
43.146130505418895
42
-0.41421356237309426
10
160.47228035095821
20
36.110155058115978
10
136.65957105441717
20
7.0057325845659797
42
0.22494984540776616
10
134.59716384843054
20
-1.3068433378083455
10
152.38889811152549
20
-89.375927940141352
42
0.17313177009643432
10
155.85850040697272
20
-95.13530291237285
10
160.08529403823132
20
-98.593588610671148
42
-0.41421364897077229
10
164.30688762281719
20
-140.80944676610727
10
148.47594221330615
20
-160.15838004439854
42
-0.41421356237309653
10
141.43996676600324
20
-160.8619775891288
10
102.74210180584078
20
-129.20008807626857
42
-0.41421356237309692
10
102.03850426111057
20
-122.16411262896565
10
116.09359488050947
20
-104.98566853858921
42
0.22494984540778626
10
118.15600208649597
20
-96.673092616214134
10
100.24624640244781
20
-8.0198019801975544
42
0.35696337817241935
10
90.444266204428089
20
-5.5511151231257827e-15
10
-7.2164496600635175e-15
20
-4.4408920985006262e-15
42
0.2249498454077736
10
-7.7395729920332101
20
-3.6676220974273743
10
-21.794663611427335
20
-20.846066187797945
42
-0.41421356237309503
10
-28.830639058730259
20
-21.549663732528224
10
-67.528504018892633
20
10.112225780332004
42
-0.41421356237309515
10
-68.232101563622905
20
17.148201227634914
10
-52.401157422710973
20
36.497132955410947
42
-0.41421347458080737
10
-10.185311835298503
20
40.718725285849608
10
-5.9585028289971724
20
37.260427007966697
42
0.17313177009643402
10
0.37387507357570016
20
34.999999999999893
10
90.222133102218351
20
35.000000000001975
42
0.22494984540776711
10
97.961706094251312
20
38.667622097429344
10
121.77441539079229
20
67.772044570979247
42
-0.41421356237309503
10
128.8103908380952
20
68.475642115709547
10
131.11775102769548
20
66.587801960582055
42
1.0000000074505806
10
132.06760772173095
20
67.748737902310069
10
123.08520893235793
20
75.097973275433532
10
108.51546277485545
20
87.018674677026553
42
-0.99999999999999989
10
127.51259648257334
20
110.23739365312616
10
142.08234264007584
20
98.316692251533127
10
151.06474143809857
20
90.967456871332672
42
0.9999999925494194
10
152.01459811483483
20
92.128392827214626
10
102.53250896696228
20
132.613738493656
42
0.20603212041025395
10
94.933283877739314
20
134.79359583837478
42
-2.510813639874748
10
121.05434272585148
20
166.71933443051176
42
0.20603212041025334
10
124.69583162596651
20
159.7022439657722
10
170.5930394957939
20
122.14998298136786
42
0.168299117355765
10
176.73759677887713
20
119.89131995823841
42
-0.34641016151377568
10
200.67569258439386
20
100.30560520827009
42
0.16829911735576525
10
204.10637362351736
20
94.729982331412174
0
CIRCLE
5
101
100
AcDbEntity
8
INTERIOR_PROFILES
100
AcDbCircle
10
-118.01402962871434
20
98.628034165076286
30
0
40
3.3000000000000091
210
0
220
0
230
-1
0
CIRCLE
5
102
100
AcDbEntity
8
INTERIOR_PROFILES
100
AcDbCircle
10
-191.46189109409846
20
38.534329329761633
30
0
40
3.2999999999999985
210
0
220
0
230
-1
0
ENDSEC
0
SECTION
2
OBJECTS
0
DICTIONARY
5
C
100
AcDbDictionary
3
ACAD_GROUP
350
D
3
ACAD_MLINESTYLE
350
17
0
DICTIONARY
5
D
100
AcDbDictionary
0
DICTIONARY
5
1A
330
C
100
AcDbDictionary
0
DICTIONARY
5
17
100
AcDbDictionary
0
ENDSEC
0
EOF
