0
SECTION
2
HEADER
9
$INSUNITS
70
1
9
$ACADVER
1
AC1014
9
$HANDSEED
5
FFFF
0
ENDSEC
0
SECTION
2
TABLES
0
TABLE
2
VPORT
5
8
100
AcDbSymbolTable
0
ENDTAB
0
TABLE
2
LTYPE
5
5
100
AcDbSymbolTable
0
LTYPE
5
14
100
AcDbSymbolTableRecord
100
AcDbLinetypeTableRecord
2
BYBLOCK
70
0
0
LTYPE
5
15
100
AcDbSymbolTableRecord
100
AcDbLinetypeTableRecord
2
BYLAYER
70
0
0
LTYPE
5
16
100
AcDbSymbolTableRecord
100
AcDbLinetypeTableRecord
2
DASHED
70
0
3
Dashed __ __ __ __ __ __ __ __ __ __ __ __ __ _
72
65
73
2
40
0.75
49
0.5
74
0
49
-0.25
74
0
0
ENDTAB
0
TABLE
2
LAYER
5
2
100
AcDbSymbolTable
70
2
0
LAYER
5
50
100
AcDbSymbolTableRecord
100
AcDbLayerTableRecord
2
0
70
0
62
7
6
CONTINUOUS
0
ENDTAB
0
TABLE
2
STYLE
5
3
100
AcDbSymbolTable
70
1
0
STYLE
5
11
100
AcDbSymbolTableRecord
100
AcDbTextStyleTableRecord
2
STANDARD
70
0
0
ENDTAB
0
TABLE
2
VIEW
5
6
100
AcDbSymbolTable
70
0
0
ENDTAB
0
TABLE
2
UCS
5
7
100
AcDbSymbolTable
70
0
0
ENDTAB
0
TABLE
2
APPID
5
9
100
AcDbSymbolTable
70
2
0
APPID
5
12
100
AcDbSymbolTableRecord
100
AcDbRegAppTableRecord
2
ACAD
70
0
0
ENDTAB
0
TABLE
2
DIMSTYLE
5
A
100
AcDbSymbolTable
70
1
0
ENDTAB
0
TABLE
2
BLOCK_RECORD
5
1
100
AcDbSymbolTable
70
1
0
BLOCK_RECORD
5
1F
100
AcDbSymbolTableRecord
100
AcDbBlockTableRecord
2
*MODEL_SPACE
0
BLOCK_RECORD
5
1B
100
AcDbSymbolTableRecord
100
AcDbBlockTableRecord
2
*PAPER_SPACE
0
ENDTAB
0
ENDSEC
0
SECTION
2
BLOCKS
0
BLOCK
5
20
100
AcDbEntity
100
AcDbBlockBegin
2
*MODEL_SPACE
0
ENDBLK
5
21
100
AcDbEntity
100
AcDbBlockEnd
0
BLOCK
5
1C
100
AcDbEntity
100
AcDbBlockBegin
2
*PAPER_SPACE
0
ENDBLK
5
1D
100
AcDbEntity
100
AcDbBlockEnd
0
ENDSEC
0
SECTION
2
ENTITIES
0
LWPOLYLINE
5
100
100
AcDbEntity
8
OUTER_PROFILES
100
AcDbPolyline
90
32
70
1
43
0.0
10
35.454874300120636
20
14.65974860024142
10
35.454874300120629
20
13.457748600241258
10
35.829874300120629
20
13.457748600241258
10
35.829874300120629
20
13.031874300120631
10
35.404000000000003
20
13.031874300120631
10
35.403999999999996
20
14.207748600241263
42
0.41421356237309503
10
34.903999999999996
20
14.707748600241265
10
0.500000000000004
20
14.707748600241265
42
0.41421356237309503
10
4.0212802466737953e-15
20
14.207748600241263
10
0
20
13.031874300120631
10
-0.4258743001206356
20
13.031874300120631
10
-0.42587430012062999
20
13.457748600241258
10
-0.050874300120629795
20
13.457748600241258
10
-0.050874300120635388
20
14.65974860024142
10
-9.6278743001204781
20
14.659748600241418
42
0.41421356237309176
10
-10.127874300120473
20
14.15974860024142
10
-10.127874300120478
20
12.513662814732786
42
0.17796748644115065
10
-10.008843959000208
20
12.189838604685015
10
-1.7469046412409088
20
2.4699099955564421
42
-0.17796748644115112
10
-1.6278743001206371
20
2.1460857855086699
10
-1.6278743001206388
20
1.6278743001206304
10
0
20
1.6278743001206304
10
0
20
0
10
35.404000000000003
20
0
10
35.404000000000003
20
1.6278743001206304
10
37.031874300120634
20
1.6278743001206304
10
37.031874300120634
20
2.1460857855086699
42
-0.1779674864411516
10
37.150904641240906
20
2.4699099955564425
10
45.412843959000199
20
12.189838604685015
42
0.17796748644115093
10
45.531874300120478
20
12.513662814732784
10
45.531874300120471
20
14.15974860024142
42
0.41421356237309503
10
45.031874300120471
20
14.65974860024142
0
CIRCLE
5
101
100
AcDbEntity
8
INTERIOR_PROFILES
100
AcDbCircle
10
44.031874300120478
20
14.034748600241434
30
0
40
0.13299999999999745
210
0
220
0
230
1
0
CIRCLE
5
102
100
AcDbEntity
8
INTERIOR_PROFILES
100
AcDbCircle
10
37.031874300120478
20
14.034748600241413
30
0
40
0.13300000000000306
210
0
220
0
230
1
0
CIRCLE
5
103
100
AcDbEntity
8
INTERIOR_PROFILES
100
AcDbCircle
10
8.6278743001204763
20
14.034748600241434
30
0
40
0.13299999999999887
210
0
220
0
230
-1
0
CIRCLE
5
104
100
AcDbEntity
8
INTERIOR_PROFILES
100
AcDbCircle
10
1.6278743001204765
20
14.034748600241413
30
0
40
0.13300000000000359
210
0
220
0
230
-1
0
LINE
5
105
100
AcDbEntity
8
BEND
100
AcDbLine
10
45.531874300120478
20
13.244811450180945
30
8.8085703584108779e-14
11
35.829874300120629
21
13.244811450180945
31
1.5781184453596892e-13
0
LINE
5
106
100
AcDbEntity
8
BEND
100
AcDbLine
10
-0.4258743001206356
20
13.244811450180942
30
1.5781184453596892e-13
11
-10.127874300120483
21
13.244811450180942
31
8.8085703584108779e-14
0
LINE
5
107
100
AcDbEntity
8
BEND
100
AcDbLine
10
35.616937150060316
20
1.6278743001206304
30
-3.321860523458992e-15
11
35.616937150060316
21
13.031874300120627
31
-3.321860523458992e-15
0
LINE
5
108
100
AcDbEntity
8
BEND
100
AcDbLine
10
5.5948246910244104e-15
20
1.4149371500603154
30
-2.6561364028047185e-15
11
35.403999999999996
21
1.4149371500603154
31
-2.6561364028047185e-15
0
LINE
5
109
100
AcDbEntity
8
BEND
100
AcDbLine
10
-0.21293715006032338
20
13.031874300120631
30
-3.321860523458992e-15
11
-0.21293715006032338
21
1.6278743001206304
31
-3.321860523458992e-15
0
LINE
5
110
100
AcDbEntity
8
BEND
100
AcDbLine
10
0
20
13.244811450180949
30
-1.6926211412080066e-15
11
35.403999999999996
21
13.244811450180949
31
-1.6926211412080066e-15
0
LINE
5
111
100
AcDbEntity
8
BEND_EXTENT
100
AcDbLine
10
45.531874300120478
20
13.457748600241258
30
8.6049587599269914e-14
11
35.829874300120629
21
13.457748600241258
31
1.5798237406764048e-13
0
LINE
5
112
100
AcDbEntity
8
BEND_EXTENT
100
AcDbLine
10
35.829874300120629
20
13.031874300120631
30
-4.1961185182683078e-15
11
45.531874300120471
21
13.031874300120631
31
-1.3987061727561026e-15
0
LINE
5
113
100
AcDbEntity
8
BEND_EXTENT
100
AcDbLine
10
35.829874300120629
20
1.6278743001206304
30
-4.1961185182683078e-15
11
35.829874300120629
21
13.031874300120631
31
-4.1961185182683078e-15
0
LWPOLYLINE
5
114
100
AcDbEntity
8
BEND_EXTENT
100
AcDbPolyline
90
4
70
1
43
0.0
10
35.404000000000003
20
13.031874300120631
10
35.404000000000003
20
1.6278743001206304
10
0
20
1.6278743001206304
10
0
20
13.031874300120631
0
LINE
5
115
100
AcDbEntity
8
BEND_EXTENT
100
AcDbLine
10
-10.127874300120478
20
13.457748600241258
30
8.6049587599269914e-14
11
-0.42587430012062999
21
13.457748600241258
31
1.5798237406764048e-13
0
LINE
5
116
100
AcDbEntity
8
BEND_EXTENT
100
AcDbLine
10
0
20
13.457748600241263
30
-1.9778579474129265e-15
11
35.404000000000003
21
13.457748600241263
31
-1.9778579474129265e-15
0
LINE
5
117
100
AcDbEntity
8
BEND_EXTENT
100
AcDbLine
10
-0.4258743001206356
20
13.031874300120631
30
-4.1961185182683078e-15
11
-10.127874300120478
21
13.031874300120631
31
-1.3987061727561026e-15
0
LINE
5
118
100
AcDbEntity
8
BEND_EXTENT
100
AcDbLine
10
-0.4258743001206356
20
1.6278743001206304
30
-4.1961185182683078e-15
11
-0.4258743001206356
21
13.031874300120631
31
-4.1961185182683078e-15
0
LINE
5
119
100
AcDbEntity
8
BEND_EXTENT
100
AcDbLine
10
35.403999999999996
20
1.2019999999999991
30
-2.7974123455122052e-15
11
5.5948246910244104e-15
21
1.2019999999999991
31
-2.7974123455122052e-15
0
ENDSEC
0
SECTION
2
OBJECTS
0
DICTIONARY
5
C
100
AcDbDictionary
3
ACAD_GROUP
350
D
3
ACAD_MLINESTYLE
350
17
0
DICTIONARY
5
D
100
AcDbDictionary
0
DICTIONARY
5
1A
330
C
100
AcDbDictionary
0
DICTIONARY
5
17
100
AcDbDictionary
0
ENDSEC
0
EOF
